<svg width="76" height="76" viewBox="0 0 76 76" fill="none" xmlns="http://www.w3.org/2000/svg">
<path d="M64.5166 48.9834C60.4322 44.8991 55.5707 41.8755 50.2665 40.0452C55.9474 36.1325 59.6797 29.5842 59.6797 22.1797C59.6797 10.2255 49.9542 0.5 38 0.5C26.0458 0.5 16.3203 10.2255 16.3203 22.1797C16.3203 29.5842 20.0526 36.1325 25.7337 40.0452C20.4295 41.8755 15.568 44.8991 11.4835 48.9834C4.40073 56.0664 0.5 65.4834 0.5 75.5H6.35938C6.35938 58.0533 20.5533 43.8594 38 43.8594C55.4467 43.8594 69.6406 58.0533 69.6406 75.5H75.5C75.5 65.4834 71.5993 56.0664 64.5166 48.9834ZM38 38C29.2767 38 22.1797 30.9031 22.1797 22.1797C22.1797 13.4563 29.2767 6.35938 38 6.35938C46.7233 6.35938 53.8203 13.4563 53.8203 22.1797C53.8203 30.9031 46.7233 38 38 38Z" fill="white"/>
</svg>
